# xmcd CD database file generated by OrangeCD 6.5
#
# Track frame offsets:
#	150
#	9274
#	19903
#	35576
#	45521
#	55874
#	75655
#	89460
#	102643
#	110004
#	122349
#	135956
#	149374
#	154846
#	164221
#	174064
#	179695
#	187876
#	199090
#	209934
#	219845
#	230356
#	241340
#	255107
#	272981
#	284775
#	293385
#	307002
#
# Disc length: 4198 seconds
#
# Revision: 0
# Processed by: cddbd v1.5.2PL0 Copyright (c) Steve Scherf et al.
# Submitted via: OrangeCD 6.5
#
DISCID=9210641c
DTITLE=Willie Nelson - Things To Remember: The Pamper Demos
DYEAR=2018
DGENRE=Outlaw Country
TTITLE0=Where Were You Yesterday
TTITLE1=More Than One Way To Cry
TTITLE2=I Just Can't Let You Say Goodbye
TTITLE3=A Broken Promise
TTITLE4=I'm Gonna Lose A Lotta Teardrops
TTITLE5=Little Things
TTITLE6=Will You Remember Mine
TTITLE7=My Own Peculiar Way
TTITLE8=I Gotta Get Drunk
TTITLE9=Half A Man
TTITLE10=You Left A Long Time Ago
TTITLE11=Undo The Right
TTITLE12=I've Just Destroyed The World
TTITLE13=Are You Sure
TTITLE14=Country Willie
TTITLE15=Three Days
TTITLE16=You Wouldn't Cross The Street
TTITLE17=Pretty Paper
TTITLE18=Night Life
TTITLE19=Hello Walls
TTITLE20=Healing Hands Of Time
TTITLE21=Good Times
TTITLE22=Funny How Time Slips Away
TTITLE23=Crazy
TTITLE24=Within Your Crowd
TTITLE25=Save Your Tears
TTITLE26=A Moment Isn't Very Long
TTITLE27=Things To Remember
EXTD=
EXTT0=
EXTT1=
EXTT2=
EXTT3=
EXTT4=
EXTT5=
EXTT6=
EXTT7=
EXTT8=
EXTT9=
EXTT10=
EXTT11=
EXTT12=
EXTT13=
EXTT14=
EXTT15=
EXTT16=
EXTT17=
EXTT18=
EXTT19=
EXTT20=
EXTT21=
EXTT22=
EXTT23=
EXTT24=
EXTT25=
EXTT26=
EXTT27=
PLAYORDER=
